<svg width="128" height="128" viewBox="0 0 128 128" fill="none" xmlns="http://www.w3.org/2000/svg">
<g clip-path="url(#clip0_75_11)">
<rect width="128" height="128" rx="16" fill="#3083DC"/>
<g filter="url(#filter0_d_75_11)">
<path d="M35.544 112V22.4H72.024C76.888 22.4 81.2827 23.6373 85.208 26.112C89.2187 28.5013 92.4187 31.7867 94.808 35.968C97.1973 40.1493 98.392 44.8 98.392 49.92C98.392 55.04 97.1973 59.6907 94.808 63.872C92.4187 68.0533 89.2187 71.424 85.208 73.984C81.2827 76.4587 76.888 77.696 72.024 77.696H49.368V112H35.544ZM49.368 64.384H71.768C74.072 64.384 76.1627 63.744 78.04 62.464C79.9173 61.0987 81.4107 59.3493 82.52 57.216C83.7147 54.9973 84.312 52.5653 84.312 49.92C84.312 47.2747 83.7147 44.8853 82.52 42.752C81.4107 40.6187 79.9173 38.912 78.04 37.632C76.1627 36.352 74.072 35.712 71.768 35.712H49.368V64.384Z" fill="#FCFCFC"/>
<path d="M35.544 112H33.544V114H35.544V112ZM35.544 22.4V20.4H33.544V22.4H35.544ZM85.208 26.112L84.1414 27.8039L84.1627 27.8173L84.1844 27.8302L85.208 26.112ZM94.808 35.968L96.5445 34.9757L96.5445 34.9757L94.808 35.968ZM85.208 73.984L86.2746 75.6759L86.2841 75.6698L85.208 73.984ZM49.368 77.696V75.696H47.368V77.696H49.368ZM49.368 112V114H51.368V112H49.368ZM49.368 64.384H47.368V66.384H49.368V64.384ZM78.04 62.464L79.1667 64.1165L79.1918 64.0993L79.2163 64.0815L78.04 62.464ZM82.52 57.216L80.7591 56.2678L80.7522 56.2805L80.7456 56.2933L82.52 57.216ZM82.52 42.752L80.7456 43.6747L80.7599 43.7022L80.775 43.7292L82.52 42.752ZM78.04 37.632L76.9133 39.2845L76.9133 39.2845L78.04 37.632ZM49.368 35.712V33.712H47.368V35.712H49.368ZM37.544 112V22.4H33.544V112H37.544ZM35.544 24.4H72.024V20.4H35.544V24.4ZM72.024 24.4C76.5296 24.4 80.5512 25.5404 84.1414 27.8039L86.2746 24.4201C82.0142 21.7342 77.2464 20.4 72.024 20.4V24.4ZM84.1844 27.8302C87.8892 30.0373 90.8476 33.0685 93.0715 36.9603L96.5445 34.9757C93.9897 30.5049 90.5481 26.9653 86.2316 24.3938L84.1844 27.8302ZM93.0715 36.9603C95.2772 40.8202 96.392 45.1253 96.392 49.92H100.392C100.392 44.4747 99.1175 39.4784 96.5445 34.9757L93.0715 36.9603ZM96.392 49.92C96.392 54.7147 95.2772 59.0198 93.0715 62.8797L96.5445 64.8643C99.1175 60.3616 100.392 55.3653 100.392 49.92H96.392ZM93.0715 62.8797C90.8409 66.7834 87.8661 69.9146 84.1319 72.2982L86.2841 75.6698C90.5712 72.9334 93.9965 69.3233 96.5445 64.8643L93.0715 62.8797ZM84.1414 72.2921C80.5512 74.5556 76.5296 75.696 72.024 75.696V79.696C77.2464 79.696 82.0142 78.3618 86.2746 75.6758L84.1414 72.2921ZM72.024 75.696H49.368V79.696H72.024V75.696ZM47.368 77.696V112H51.368V77.696H47.368ZM49.368 110H35.544V114H49.368V110ZM49.368 66.384H71.768V62.384H49.368V66.384ZM71.768 66.384C74.4679 66.384 76.9523 65.6262 79.1667 64.1165L76.9133 60.8115C75.373 61.8618 73.6761 62.384 71.768 62.384V66.384ZM79.2163 64.0815C81.3532 62.5274 83.0475 60.5366 84.2944 58.1387L80.7456 56.2933C79.7738 58.162 78.4814 59.67 76.8637 60.8465L79.2163 64.0815ZM84.2809 58.1642C85.6404 55.6395 86.312 52.8793 86.312 49.92H82.312C82.312 52.2514 81.7889 54.3552 80.7591 56.2678L84.2809 58.1642ZM86.312 49.92C86.312 46.9613 85.6404 44.2309 84.265 41.7748L80.775 43.7292C81.7889 45.5398 82.312 47.588 82.312 49.92H86.312ZM84.2944 41.8293C83.0419 39.4206 81.3328 37.4564 79.1667 35.9795L76.9133 39.2845C78.5019 40.3675 79.7794 41.8168 80.7456 43.6747L84.2944 41.8293ZM79.1667 35.9795C76.9523 34.4697 74.4679 33.712 71.768 33.712V37.712C73.6761 37.712 75.373 38.2342 76.9133 39.2845L79.1667 35.9795ZM71.768 33.712H49.368V37.712H71.768V33.712ZM47.368 35.712V64.384H51.368V35.712H47.368Z" fill="#1E2329"/>
</g>
</g>
<defs>
<filter id="filter0_d_75_11" x="35.544" y="22.4" width="66.848" height="92.6" filterUnits="userSpaceOnUse" color-interpolation-filters="sRGB">
<feFlood flood-opacity="0" result="BackgroundImageFix"/>
<feColorMatrix in="SourceAlpha" type="matrix" values="0 0 0 0 0 0 0 0 0 0 0 0 0 0 0 0 0 0 127 0" result="hardAlpha"/>
<feOffset dx="4" dy="3"/>
<feComposite in2="hardAlpha" operator="out"/>
<feColorMatrix type="matrix" values="0 0 0 0 0.175 0 0 0 0 0.175 0 0 0 0 0.175 0 0 0 1 0"/>
<feBlend mode="normal" in2="BackgroundImageFix" result="effect1_dropShadow_75_11"/>
<feBlend mode="normal" in="SourceGraphic" in2="effect1_dropShadow_75_11" result="shape"/>
</filter>
<clipPath id="clip0_75_11">
<rect width="128" height="128" rx="16" fill="white"/>
</clipPath>
</defs>
</svg>
